<svg width="1920" height="1080" viewBox="0 0 1920 1080" fill="none" xmlns="http://www.w3.org/2000/svg">
  <defs>
    <linearGradient id="grad1" x1="0%" y1="0%" x2="100%" y2="100%">
      <stop offset="0%" style="stop-color:#001B2E;stop-opacity:1" />
      <stop offset="100%" style="stop-color:#003B5C;stop-opacity:1" />
    </linearGradient>
    <filter id="blur1" x="-50%" y="-50%" width="200%" height="200%">
      <feGaussianBlur in="SourceGraphic" stdDeviation="30" />
    </filter>
  </defs>
  
  <!-- Background -->
  <rect width="1920" height="1080" fill="url(#grad1)" />
  
  <!-- Decorative circles -->
  <circle cx="960" cy="540" r="400" fill="#2196f3" opacity="0.1" filter="url(#blur1)" />
  <circle cx="760" cy="340" r="300" fill="#64b5f6" opacity="0.05" filter="url(#blur1)" />
  
  <!-- Smart Glasses Icon -->
  <path d="M700 500 L900 500 C950 500 950 400 900 400 L700 400 C650 400 650 500 700 500 Z" stroke="#2196f3" stroke-width="2" fill="none" />
  <path d="M1000 500 L1200 500 C1250 500 1250 400 1200 400 L1000 400 C950 400 950 500 1000 500 Z" stroke="#2196f3" stroke-width="2" fill="none" />
  <path d="M900 450 L1000 450" stroke="#2196f3" stroke-width="2" />
  
  <!-- Location Marker -->
  <circle cx="1100" cy="600" r="20" fill="none" stroke="#2196f3" stroke-width="2" />
  <path d="M1100 580 L1100 620 M1080 600 L1120 600" stroke="#2196f3" stroke-width="2" />
  
  <!-- Signal Waves -->
  <path d="M1050 600 Q1100 550 1150 600" stroke="#2196f3" stroke-width="1" fill="none" opacity="0.3" />
  <path d="M1030 600 Q1100 520 1170 600" stroke="#2196f3" stroke-width="1" fill="none" opacity="0.2" />
  <path d="M1010 600 Q1100 490 1190 600" stroke="#2196f3" stroke-width="1" fill="none" opacity="0.1" />
</svg>